<svg version="1.1" viewBox="0 0 62 62" xmlns="http://www.w3.org/2000/svg" xmlns:xlink="http://www.w3.org/1999/xlink" id="Layer_1" overflow="hidden"><defs></defs><circle cx="31" cy="31" r="31" fill="#5C2D91"/><path d=" M 52.92 9.08 C 65.0258 21.1862 65.0258 40.8138 52.92 52.92 L 9.08 9.08 C 21.1862 -3.02584 40.8138 -3.02584 52.92 9.08 Z" fill="#633BA3"/><path d=" M 16.17 37 L 14.75 37 L 14.75 28.83 C 14.75 28.1633 14.79 27.3733 14.87 26.46 L 14.87 26.46 C 14.7855 26.8633 14.665 27.2582 14.51 27.64 L 10.31 37 L 9.61 37 L 5.46 27.71 C 5.30253 27.3042 5.17877 26.8861 5.09 26.46 L 5.09 26.46 C 5.09 26.94 5.16 27.74 5.16 28.84 L 5.16 37 L 3.75 37 L 3.75 24.82 L 5.64 24.82 L 9.37 33.31 C 9.59401 33.7815 9.78123 34.2696 9.93 34.77 L 10 34.77 C 10.24 34.1 10.43 33.6 10.58 33.28 L 14.39 24.82 L 16.18 24.82 Z" fill="#FFFFFF"/><path d=" M 24.64 37 L 18.33 37 L 18.33 24.82 L 19.75 24.82 L 19.75 35.7 L 24.64 35.7 Z" fill="#FFFFFF"/><path d=" M 27.16 37.18 C 26.907 37.1862 26.6634 37.0843 26.49 36.9 C 26.3097 36.7238 26.2087 36.4821 26.21 36.23 C 26.2161 35.9795 26.316 35.7404 26.49 35.56 C 26.6623 35.373 26.9057 35.2677 27.16 35.27 C 27.7099 35.3214 28.114 35.8088 28.0626 36.3587 C 28.044 36.5573 27.9665 36.7458 27.84 36.9 C 27.6614 37.0828 27.4155 37.1841 27.16 37.18 Z" fill="#FFFFFF"/><path d=" M 40.1 37 L 38.35 37 L 32.08 27.29 C 31.9205 27.0494 31.7896 26.791 31.69 26.52 L 31.64 26.52 C 31.7033 27.0776 31.7267 27.639 31.71 28.2 L 31.71 37 L 30.28 37 L 30.28 24.82 L 32.13 24.82 L 38.23 34.37 C 38.4091 34.6336 38.5727 34.9074 38.72 35.19 L 38.72 35.19 C 38.6458 34.593 38.6157 33.9914 38.63 33.39 L 38.63 24.82 L 40.1 24.82 Z" fill="#FFFFFF"/><path d=" M 48.7 37 L 42.25 37 L 42.25 24.82 L 48.43 24.82 L 48.43 26.11 L 43.68 26.11 L 43.68 30.16 L 48.07 30.16 L 48.07 31.44 L 43.68 31.44 L 43.68 35.7 L 48.68 35.7 Z" fill="#FFFFFF"/><path d=" M 58.25 26.11 L 54.73 26.11 L 54.73 37 L 53.31 37 L 53.31 26.11 L 49.8 26.11 L 49.8 24.82 L 58.25 24.82 Z" fill="#FFFFFF"/></svg>